<svg id="visual" viewBox="0 0 960 50" width="960" height="50" xmlns="http://www.w3.org/2000/svg" xmlns:xlink="http://www.w3.org/1999/xlink" version="1.1"><rect x="0" y="0" width="960" height="50" fill="#fff"></rect><path d="M0 27L8.5 28.5C17 30 34 33 50.8 34.7C67.7 36.3 84.3 36.7 101.2 35.7C118 34.7 135 32.3 151.8 30.5C168.7 28.7 185.3 27.3 202.2 27C219 26.7 236 27.3 252.8 29.2C269.7 31 286.3 34 303.2 35.3C320 36.7 337 36.3 353.8 35C370.7 33.7 387.3 31.3 404.2 29.7C421 28 438 27 454.8 27.5C471.7 28 488.3 30 505.2 31.2C522 32.3 539 32.7 555.8 31.5C572.7 30.3 589.3 27.7 606.2 28C623 28.3 640 31.7 656.8 32C673.7 32.3 690.3 29.7 707.2 29.5C724 29.3 741 31.7 757.8 31.3C774.7 31 791.3 28 808.2 26.2C825 24.3 842 23.7 858.8 23.2C875.7 22.7 892.3 22.3 909.2 22.3C926 22.3 943 22.7 951.5 22.8L960 23L960 51L951.5 51C943 51 926 51 909.2 51C892.3 51 875.7 51 858.8 51C842 51 825 51 808.2 51C791.3 51 774.7 51 757.8 51C741 51 724 51 707.2 51C690.3 51 673.7 51 656.8 51C640 51 623 51 606.2 51C589.3 51 572.7 51 555.8 51C539 51 522 51 505.2 51C488.3 51 471.7 51 454.8 51C438 51 421 51 404.2 51C387.3 51 370.7 51 353.8 51C337 51 320 51 303.2 51C286.3 51 269.7 51 252.8 51C236 51 219 51 202.2 51C185.3 51 168.7 51 151.8 51C135 51 118 51 101.2 51C84.3 51 67.7 51 50.8 51C34 51 17 51 8.5 51L0 51Z" fill="#143601" stroke-linecap="round" stroke-linejoin="miter"></path><path d="M0 23L8.5 24.3C17 25.7 34 28.3 50.8 30.5C67.7 32.7 84.3 34.3 101.2 34.7C118 35 135 34 151.8 33C168.7 32 185.3 31 202.2 29.2C219 27.3 236 24.7 252.8 24.5C269.7 24.3 286.3 26.7 303.2 29C320 31.3 337 33.7 353.8 34.2C370.7 34.7 387.3 33.3 404.2 32.5C421 31.7 438 31.3 454.8 32C471.7 32.7 488.3 34.3 505.2 33.3C522 32.3 539 28.7 555.8 27.8C572.7 27 589.3 29 606.2 30.5C623 32 640 33 656.8 31.7C673.7 30.3 690.3 26.7 707.2 26C724 25.3 741 27.7 757.8 28.7C774.7 29.7 791.3 29.3 808.2 29.5C825 29.7 842 30.3 858.8 29.3C875.7 28.3 892.3 25.7 909.2 26.3C926 27 943 31 951.5 33L960 35L960 51L951.5 51C943 51 926 51 909.2 51C892.3 51 875.7 51 858.8 51C842 51 825 51 808.2 51C791.3 51 774.7 51 757.8 51C741 51 724 51 707.2 51C690.3 51 673.7 51 656.8 51C640 51 623 51 606.2 51C589.3 51 572.7 51 555.8 51C539 51 522 51 505.2 51C488.3 51 471.7 51 454.8 51C438 51 421 51 404.2 51C387.3 51 370.7 51 353.8 51C337 51 320 51 303.2 51C286.3 51 269.7 51 252.8 51C236 51 219 51 202.2 51C185.3 51 168.7 51 151.8 51C135 51 118 51 101.2 51C84.3 51 67.7 51 50.8 51C34 51 17 51 8.5 51L0 51Z" fill="#143601" stroke-linecap="round" stroke-linejoin="miter"></path></svg>